HIERARCHY
ROOT Hips
{
  OFFSET -32.5998 29.0326 120.673
  CHANNELS 6 Xposition Yposition Zposition Zrotation Xrotation Yrotation
  JOINT LeftUpLeg
  {
    OFFSET 8.64259 1.95398 -2.38835
    CHANNELS 3 Zrotation Xrotation Yrotation
    JOINT LeftLeg
    {
      OFFSET 43.7702 0 0
      CHANNELS 3 Zrotation Xrotation Yrotation
      JOINT LeftFoot
      {
        OFFSET 40.6238 0 0
        CHANNELS 3 Zrotation Xrotation Yrotation
        JOINT LeftToeBase
        {
          OFFSET 12.7242 0 0
          CHANNELS 3 Zrotation Xrotation Yrotation
          End Site
          {
            OFFSET 0 0 0
          }
        }
      }
    }
  }
  JOINT RightUpLeg
  {
    OFFSET -8.2249 1.95398 -2.59336
    CHANNELS 3 Zrotation Xrotation Yrotation
    JOINT RightLeg
    {
      OFFSET 43.5653 0 0
      CHANNELS 3 Zrotation Xrotation Yrotation
      JOINT RightFoot
      {
        OFFSET 40.6238 0 0
        CHANNELS 3 Zrotation Xrotation Yrotation
        JOINT RightToeBase
        {
          OFFSET 12.7242 0 0
          CHANNELS 3 Zrotation Xrotation Yrotation
          End Site
          {
            OFFSET 0 0 0
          }
        }
      }
    }
  }
  JOINT Spine
  {
    OFFSET 0.165834 0.87714 6.61349
    CHANNELS 3 Zrotation Xrotation Yrotation
    JOINT Spine1
    {
      OFFSET 7.38963 1.71661e-005 0
      CHANNELS 3 Zrotation Xrotation Yrotation
      JOINT Spine2
      {
        OFFSET 11.9445 1.14441e-005 0
        CHANNELS 3 Zrotation Xrotation Yrotation
        JOINT Spine3
        {
          OFFSET 14.7254 4.19617e-005 0
          CHANNELS 3 Zrotation Xrotation Yrotation
          JOINT Spine4
          {
            OFFSET 10.9679 0 0
            CHANNELS 3 Zrotation Xrotation Yrotation
            JOINT RightShoulder
            {
              OFFSET 2.46616 -1.6653 3.69651
              CHANNELS 3 Zrotation Xrotation Yrotation
              JOINT RightArm
              {
                OFFSET 13.0012 0 0
                CHANNELS 3 Zrotation Xrotation Yrotation
                JOINT RightForeArm
                {
                  OFFSET 28.7848 1.62311e-005 0
                  CHANNELS 3 Zrotation Xrotation Yrotation
                  JOINT RightHand
                  {
                    OFFSET 26.5688 1.62095e-005 0
                    CHANNELS 3 Zrotation Xrotation Yrotation
                    End Site
                    {
                      OFFSET 0 0 0
                    }
                  }
                }
              }
            }
            JOINT LeftShoulder
            {
              OFFSET 2.38034 -1.29275 -3.7523
              CHANNELS 3 Zrotation Xrotation Yrotation
              JOINT LeftArm
              {
                OFFSET 16.3182 6.07031e-005 0
                CHANNELS 3 Zrotation Xrotation Yrotation
                JOINT LeftForeArm
                {
                  OFFSET 27.0901 0 0
                  CHANNELS 3 Zrotation Xrotation Yrotation
                  JOINT LeftHand
                  {
                    OFFSET 24.5451 1.51738e-005 0
                    CHANNELS 3 Zrotation Xrotation Yrotation
                    End Site
                    {
                      OFFSET 0 0 0
                    }
                  }
                }
              }
            }
            JOINT Neck
            {
              OFFSET 5.0226 -0.0266342 0
              CHANNELS 3 Zrotation Xrotation Yrotation
              JOINT Head
              {
                OFFSET 6.69364 2.86102e-005 0
                CHANNELS 3 Zrotation Xrotation Yrotation
                End Site
                {
                  OFFSET 0 0 0
                }
              }
            }
          }
        }
      }
    }
  }
}
MOTION
Frames:	18
Frame Time:	0.0416667
40.4265 102.339 -287.642 -173.938 -83.7637 -176.962 -172.969 -7.48241 90.9181 -6.74809 6.69732 0.279626 67.3971 4.35831 -5.30777 24.2752 -8.29421 13.3305 171.271 -3.76287 86.7277 -13.5096 -8.72472 -0.518407 69.3364 -4.8253 3.02595 26.8395 2.07402 -4.371 -0.0286554 7.61579 -90.0569 11.6422 -0.083624 -0.104623 -0.0287128 -0.0881426 -0.100855 -22.5638 -0.0483174 -0.124924 -2.5512 -0.0483066 -0.124916 92.379 -25.8582 -103.4 45.3779 -12.6771 -4.89183 -22.2053 -28.8146 -30.9593 -15.3439 -0.687536 0.0149135 -87.8069 -51.6393 82.3013 -27.4135 17.7497 -17.1267 9.53341 6.11603 -3.6277 -5.07429 0.0359189 -9.72796 1.51663 -1.33278 -6.01218 -0.336256 -0.000580826 14.7926 
39.799 102.399 -287.519 -153.669 -83.5742 -155.731 -172.759 -6.62721 91.8405 -8.08065 3.16741 0.781494 69.3843 5.22771 -6.18183 20.6472 -9.13658 10.9328 171.899 -2.94118 88.002 -14.6874 -10.3028 -0.387948 67.7986 -4.17545 0.281376 27.9759 0.0168007 1.33656 0.148681 7.52277 -90.0304 11.8287 0.281457 -0.0902231 0.15774 0.277216 -0.10254 -22.3777 0.295557 -0.00146379 -2.365 0.295563 -0.00146867 91.1874 -27.5877 -105.272 45.0322 -14.1242 -4.02409 -19.9079 -24.4826 -29.6267 -13.3578 -0.719652 1.10612 -87.347 -49.9256 82.6923 -25.0413 22.955 -13.4931 7.90738 -1.7214 -7.1557 -4.39199 -0.0131578 -8.78738 3.60417 -0.24701 1.68976 -8.37419 -0.569485 -0.59025 
38.5115 102.241 -286.978 -148.377 -83.03 -150.809 -172.643 -7.32472 91.595 -7.7651 2.40575 0.942962 69.3335 6.34055 -5.72182 21.5738 -8.53634 10.7864 171.94 -2.11013 88.1427 -17.4433 -10.2226 -0.420917 70.8434 -5.5692 0.0093602 24.2506 1.16878 3.07226 0.282106 7.57796 -89.9784 11.718 0.571312 -0.0168111 0.0472359 0.570023 -0.0419545 -22.4889 0.549944 0.155675 -2.47624 0.549943 0.155662 91.0757 -27.9002 -105.383 45.7493 -17.9899 -3.3784 -15.6419 -16.3935 -27.4442 -8.06615 -0.00561171 -5.38954 -87.5373 -50.0224 82.4224 -22.7079 25.8003 -11.0241 6.54194 -6.42864 -11.1469 -4.23324 -0.0294604 -7.94461 2.80576 -0.24064 1.70474 -7.64454 -0.517904 0.0455175 
36.5509 101.213 -287.179 -153.394 -83.6066 -155.239 -172.7 -0.192947 94.1491 -19.4476 2.75448 1.20247 71.7618 8.08161 -4.85074 26.8726 -7.21774 14.294 171.914 -0.0769706 89.9735 -21.9164 -10.2332 0.836676 72.946 -6.53307 -0.856784 25.0861 1.3829 1.02835 0.325999 7.67816 -90.0495 11.5177 0.625483 -0.162033 -0.153124 0.617751 -0.18941 -22.6895 0.645258 0.0334441 -2.67681 0.645262 0.033447 91.1708 -26.761 -105.622 46.3103 -17.9493 -3.13834 -15.9922 -17.5136 -27.4542 -8.39022 -0.123908 -3.89592 -87.1978 -49.5624 82.8557 -22.2477 23.7816 -10.6846 7.14277 -6.28512 -11.6831 -3.93857 -0.0611987 -6.54863 3.84291 -0.0481459 2.97875 -7.5393 -0.540237 -0.621372 
34.9063 100.613 -287.431 -175.155 -83.5197 -175.857 -174.737 9.81755 94.3779 -38.4445 4.72721 2.9099 71.4069 6.90573 -2.5334 23.1196 -9.17019 13.6979 171.961 -0.456743 91.5811 -23.2889 -7.88426 2.00513 73.6523 -6.49394 -0.454326 25.2999 0.820836 2.70403 0.349958 7.912 -90.2941 11.0512 0.560326 -0.639112 -0.619811 0.53165 -0.663159 -23.1552 0.726488 -0.441163 -3.1426 0.726493 -0.441172 91.1799 -25.7687 -105.99 45.8422 -17.2567 -3.37913 -14.7193 -16.6551 -25.4244 -10.0554 -0.186377 -3.16515 -87.3804 -51.5237 82.9111 -20.3395 21.7278 -9.29786 8.07449 -5.91286 -16.7775 -3.2382 -0.0768325 -6.18127 4.09915 -0.400938 5.35256 -6.37292 -1.27291 -2.28205 
33.796 100.867 -286.435 168.386 -83.0395 167.175 -176.932 16.1368 92.1321 -46.6547 8.30959 3.36828 69.4495 5.85855 1.43061 19.5539 -9.36805 10.2064 171.986 -2.50171 91.8133 -21.8549 -3.89024 1.96466 75.7641 -6.89087 1.01952 22.2438 2.41442 1.82954 0.52282 8.05181 -90.3154 10.7748 0.895564 -0.710159 -0.896035 0.863434 -0.748893 -23.433 1.06759 -0.40816 -3.42036 1.06759 -0.408161 90.8711 -26.0168 -106.549 44.5124 -16.9634 -2.89087 -13.213 -16.1629 -23.3015 -12.0032 -0.184544 -3.51954 -87.2691 -52.2363 83.1896 -20.6951 19.8239 -7.43698 9.2763 -4.54292 -20.098 -2.9369 -0.0877009 -5.00956 3.18939 -1.55315 4.72387 -5.2483 -2.27847 -2.86101 
33.4431 100.889 -284.662 168.847 -83.3316 165.511 -177.402 17.9299 87.8341 -40.0428 10.2194 1.6621 69.1355 5.0527 -2.58126 18.8178 -9.85741 10.3394 170.982 -3.55376 89.6428 -20.6568 -5.3411 1.76081 75.1705 -6.6066 0.986039 26.6264 -0.0722977 3.99784 0.864428 8.08175 -90.0424 10.7123 1.70196 -0.240248 -0.957597 1.68974 -0.314948 -23.5016 1.69546 0.282524 -3.48891 1.69545 0.282517 90.904 -26.7788 -106.172 44.5513 -17.2489 -3.57185 -12.7541 -17.2133 -21.7311 -11.4531 -0.205161 -3.20518 -87.446 -51.0759 82.7385 -22.3189 18.4909 -5.45529 9.19008 -4.65187 -18.3499 -3.22394 -0.0834933 -5.42858 2.75509 -2.75581 2.89068 -5.61301 -3.13761 -2.79568 
33.3621 100.716 -282.25 166.395 -83.7678 161.871 -178.13 17.2239 84.1495 -24.3973 10.6007 0.123711 66.8823 4.67255 -0.649196 15.8274 -8.99339 6.01321 170.854 -5.24858 88.7587 -19.3285 -4.71815 1.1685 75.505 -6.88893 1.06719 28.7401 -1.09966 4.59434 0.925602 8.13596 -89.981 10.604 1.85228 -0.129359 -1.06566 1.84479 -0.210791 -23.6111 1.80549 0.433495 -3.59839 1.80549 0.433493 90.7849 -25.9746 -106.744 44.5129 -17.617 -5.06083 -14.8825 -18.3424 -24.7749 -10.1873 -0.184156 -3.22885 -87.5742 -52.5574 82.798 -22.5945 18.9804 -2.01573 8.20183 -6.35304 -16.9037 -3.74665 -0.0871587 -5.08057 2.94023 -2.65514 4.9142 -4.51628 -3.39553 -3.37266 
33.3391 100.3 -278.676 166.242 -83.3567 161.945 -178.829 15.0975 82.1664 -10.2412 7.50468 -0.848722 64.3753 3.71599 -0.821496 13.8276 -9.80259 5.57987 171.034 -9.09584 89.0924 -17.3158 -3.9646 0.724407 75.8076 -7.40763 1.04668 30.6101 -1.75227 4.1668 0.930171 8.1996 -90.0546 10.4779 1.82783 -0.270625 -1.19183 1.81415 -0.350837 -23.7372 1.82463 0.291414 -3.72454 1.82464 0.291423 90.6548 -26.1698 -106.939 43.3296 -17.5726 -6.54436 -16.3687 -17.6078 -27.7703 -10.1659 -0.110468 -4.09689 -87.7711 -53.5252 82.6721 -24.1649 20.4391 1.16305 7.35358 -7.77905 -13.8407 -2.4761 -0.0927261 -3.52409 2.36566 -2.37935 5.4682 -3.78443 -3.21206 -2.98293 
33.2583 99.2914 -274.161 -176.198 -84.5238 179.603 -178.486 17.0861 81.0841 -8.63003 4.27437 -2.10864 63.8032 3.12549 -0.968351 13.645 -9.55347 5.01862 170.578 -10.415 88.3742 -18.7278 -4.59316 0.383566 80.0855 -9.68364 2.43449 28.9587 -0.931922 3.53096 1.09639 8.09177 -90.0645 10.6946 2.15379 -0.324915 -0.97461 2.13739 -0.419442 -23.5239 2.15181 0.337712 -3.51126 2.15181 0.337714 90.4999 -26.2416 -107.235 42.4113 -17.7716 -8.40859 -16.1663 -17.6839 -27.191 -10.1973 -0.0861299 -4.39164 -87.6956 -54.7214 82.9761 -26.2286 19.8533 4.33452 7.49911 -6.82957 -13.9571 -4.97636 -0.0963705 -4.16181 2.14677 -1.92732 5.77851 -3.95121 -2.79844 -3.61085 
33.0767 98.4217 -267.869 -138.712 -83.2729 -142.899 -177.801 18.979 81.0703 -15.6645 1.63048 -1.94279 60.9674 0.109306 -1.55897 11.1456 -10.5184 4.4334 170.052 -15.658 87.2501 -15.0849 -7.3687 -0.778697 80.2022 -11.1665 1.76575 30.6108 -1.35523 2.28238 1.39458 7.99013 -89.9693 10.9002 2.79073 -0.203993 -0.767841 2.77905 -0.326725 -23.3262 2.72294 0.644807 -3.31352 2.72294 0.644806 90.5811 -25.869 -107.22 43.1428 -18.8653 -9.16456 -15.5223 -18.168 -25.9567 -10.2279 -0.0752206 -4.51272 -87.3641 -55.3652 83.548 -27.1997 18.33 7.50797 7.31797 -8.03246 -15.3622 -4.29953 -0.0986908 -3.96543 2.78737 -1.54289 5.37233 -4.884 -2.34834 -4.0422 
33.1548 98.4739 -260.201 -122.472 -81.0554 -128.705 -177.213 19.1918 78.6565 -24.4007 -0.181635 -2.30413 63.9253 1.13889 -0.492609 8.94002 -11.9502 4.80821 166.645 -18.0129 81.9991 -16.1987 -12.8775 -1.5839 75.4838 -9.46723 -0.117344 37.9163 -4.58557 3.87982 1.43292 7.87563 -89.5813 11.1191 3.04658 0.537513 -0.548302 3.06729 0.402787 -23.107 2.74409 1.42892 -3.09437 2.7441 1.42891 90.025 -26.2871 -108.211 44.7488 -18.2704 -8.02838 -15.855 -19.1821 -25.9841 -11.0445 -0.201466 -3.21683 -87.2775 -56.0718 83.7783 -24.7778 18.6203 6.63666 6.87966 -8.73708 -12.1899 -4.13595 -0.0901424 -4.42201 2.96363 -0.921838 5.24729 -4.64448 -1.72555 -4.50625 
32.9198 99.1495 -252.394 -122.333 -79.2873 -128.898 -176.198 13.6844 78.2495 -26.8934 -1.10292 -3.17171 69.9636 4.66314 -0.964653 10.1536 -11.7242 5.4678 165.203 -12.7796 78.6297 -31.6056 -20.312 -2.4023 65.7258 -3.24229 -0.788357 42.202 -6.55367 6.40224 1.38627 7.8021 -89.4533 11.2615 3.01331 0.790092 -0.406155 3.04516 0.656587 -22.9621 2.63648 1.6597 -2.94941 2.63649 1.65969 90.625 -25.6952 -107.198 46.4287 -18.8742 -5.89888 -15.9729 -20.1685 -26.5329 -12.0244 -0.216183 -3.2006 -86.9131 -54.6399 84.0801 -22.9549 20.0095 1.58472 6.43348 -9.64309 -7.74492 -4.5774 -0.0719483 -5.33583 2.22932 -0.519443 4.05616 -6.27886 -1.065 -3.66956 
32.5758 99.6234 -246.299 -126.313 -77.4686 -131.769 -175.933 7.58104 78.951 -26.933 -1.43973 -2.9843 73.8525 6.78091 -0.906313 11.7511 -11.1427 5.92455 168.621 -1.42874 79.256 -55.3163 -23.889 -4.57135 57.4582 2.56111 0.777698 24.9306 0.11907 5.70848 1.09067 7.97248 -89.6 10.9239 2.35652 0.573448 -0.745034 2.37948 0.46911 -23.2932 2.0752 1.25542 -3.28056 2.0752 1.25542 91.0366 -24.9507 -106.63 45.365 -18.498 -4.85976 -16.7723 -17.1712 -29.1702 -9.8302 -0.137936 -3.73285 -87.2401 -54.8354 83.6413 -19.337 18.8682 -3.49252 7.1328 -8.25836 -12.4206 -3.49953 -0.0920437 -4.33946 2.68527 0.790629 5.04447 -5.42865 0.0342821 -4.12205 
31.8656 100.092 -241.266 -131.552 -76.5557 -135.529 -175.97 1.46648 80.1705 -24.8997 -1.18773 -2.15821 76.3349 8.23581 -1.45267 13.1311 -11.0244 6.93193 173.648 7.37823 83.0698 -63.6156 -20.4707 -5.54031 63.7585 -1.52543 -1.54836 24.5744 0.828189 3.75932 0.788342 8.18696 -89.6241 10.4952 1.74287 0.591801 -1.17468 1.76721 0.514495 -23.716 1.48442 1.08832 -3.70333 1.48442 1.08832 90.636 -27.2803 -106.535 42.7324 -15.8411 -5.27199 -15.9291 -13.7155 -29.4142 -10.4055 -0.183434 -3.28224 -87.6483 -51.8996 82.5785 -15.2255 19.0985 -14.8648 7.30076 -7.4535 -9.33532 -2.59279 -0.0900297 -5.22533 1.46523 1.2449 1.59041 -4.25506 1.00104 -2.39707 
30.949 100.754 -236.581 -140.1 -78.044 -140.9 -175.418 -3.18537 83.5601 -22.7034 1.16182 -0.604447 78.0488 9.01312 -2.75468 15.9326 -11.2462 9.87949 177.363 11.9577 89.043 -50.3933 -10.7514 -4.52744 70.4687 -5.79427 -0.661686 23.5351 1.53597 2.85653 0.343863 8.21489 -89.9457 10.4459 0.709921 0.04569 -1.22487 0.711253 0.0143925 -23.7614 0.663375 0.25695 -3.74875 0.663377 0.256946 90.6351 -27.4932 -106.448 42.4911 -13.8988 -4.03306 -19.1958 -17.4433 -32.1423 -10.5807 -0.228068 -2.79097 -87.7543 -50.3562 82.1566 -12.2821 18.7106 -24.546 7.13057 -7.39145 -9.40904 -4.26708 -0.0570781 -6.31625 -0.315412 1.69774 -0.379323 -4.46139 1.7435 -1.18783 
29.8629 100.707 -231.304 -145.181 -79.7649 -144.07 -174.857 -7.13794 85.8615 -20.1236 2.72583 0.54397 80.9867 11.3366 -2.23179 12.6266 -10.8635 6.23963 178.992 14.9128 92.6305 -28.7367 -7.57927 -2.77941 65.9633 -3.41373 -0.936341 22.9807 1.60026 3.42974 0.0494246 8.24596 -90.1464 10.3819 0.0314566 -0.293585 -1.2891 0.0185083 -0.294697 -23.824 0.118232 -0.270559 -3.81137 0.118233 -0.270563 90.2961 -28.515 -106.74 42.09 -13.7031 -1.85748 -18.7828 -15.7022 -32.8778 -9.54294 -0.0608532 -4.66269 -87.6755 -48.0472 81.8606 -12.3287 18.6094 -30.668 7.76853 -7.12475 -15.5319 -1.26445 -0.101296 -5.48386 0.810885 1.67577 -3.10894 -5.02853 2.1087 0.335283 
28.8595 99.5514 -224.583 -147.438 -80.918 -145.824 -173.374 -12.5319 87.8244 -17.2208 4.93901 0.268294 83.867 13.4793 -2.73117 16.6453 -10.5784 9.43733 177.722 15.0685 94.4764 -9.34769 -10.9718 0.441526 62.979 -2.09008 -0.228973 26.5433 0.298254 2.67315 -0.0959281 8.22123 -90.2122 10.4307 -0.288307 -0.396254 -1.24031 -0.305472 -0.383178 -23.7751 -0.1559 -0.464584 -3.7624 -0.155889 -0.464576 90.4042 -29.5865 -106.111 42.6771 -11.9895 0.146606 -18.3002 -16.9673 -30.4101 -9.4559 -0.0742326 -4.47825 -88.138 -48.2162 81.183 -13.4678 17.3756 -33.7765 10.512 -2.20892 -20.9111 -1.43898 -0.101268 -5.629 1.65936 1.1339 -4.72687 -5.27115 1.83903 0.520298 
